<svg width="100" height="32" viewBox="0 0 100 32" fill="none" xmlns="http://www.w3.org/2000/svg">
<path fill-rule="evenodd" clip-rule="evenodd" d="M0 1.66552H12.16L13.493 1.7211L14.77 1.83228L15.9919 2.10969L17.1581 2.38763L18.2127 2.8318L19.2122 3.27598L20.1562 3.83133L21.0445 4.44227L21.8222 5.1088L22.5994 5.83038L23.2659 6.60808L23.8763 7.44084L24.3761 8.32919L24.8759 9.21807L25.2644 10.162L25.598 11.1059L42.8652 0L49.1392 4.21991L35.7023 12.8816L37.8675 14.3253L51.4156 5.7192L57.2449 9.60558L43.8642 18.434L46.1406 19.8221L59.7432 11.1605V1.66552H69.7379V20.5993H78.6219V29.4828H59.7432V20.3769L42.9202 31.2044L25.7631 19.5998L25.4296 20.5993L25.0966 21.5432L24.5968 22.4872L24.0971 23.4316L23.4861 24.2644L22.8196 25.0977L22.098 25.8748L21.2653 26.5408L20.4325 27.2074L19.433 27.7627L18.4335 28.2625L17.3228 28.7066L16.1565 29.0396L14.9351 29.2615L13.6582 29.4282L12.2701 29.4838H0V1.66552ZM9.55053 10.3828H12.16L13.3263 10.4939L14.2702 10.8269L15.103 11.3267L15.8246 11.9932L16.3249 12.7704L16.7134 13.6037L16.9353 14.5476L16.9908 15.4916L16.9353 16.4355L16.7134 17.38L16.3249 18.2127L15.7695 18.9904L15.103 19.6564L14.2702 20.1567L13.2707 20.4897L12.16 20.6009H9.55053V10.3828ZM81.1208 1.66552H91.171V20.5993H100V29.4828H81.1213V1.66552H81.1208Z" fill="white"/>
</svg>
